<svg width="16" height="16" viewBox="0 0 16 16" fill="none" xmlns="http://www.w3.org/2000/svg">
<path d="M12.6667 15.8334H3.33333C2.84721 15.8331 2.3811 15.6398 2.03736 15.2961C1.69362 14.9523 1.50035 14.4862 1.5 14.0001V2.00008C1.50035 1.51396 1.69362 1.04785 2.03736 0.70411C2.3811 0.36037 2.84721 0.167102 3.33333 0.166749H10.042C10.3109 0.166431 10.5765 0.225412 10.82 0.339491C11.0635 0.45357 11.2788 0.61994 11.4507 0.826749L14.0753 3.97608C14.3496 4.30559 14.4998 4.72071 14.5 5.14942V14.0001C14.4996 14.4862 14.3064 14.9523 13.9626 15.2961C13.6189 15.6398 13.1528 15.8331 12.6667 15.8334ZM3.33333 1.16675C3.11243 1.1671 2.90067 1.25501 2.74447 1.41122C2.58826 1.56742 2.50035 1.77918 2.5 2.00008V14.0001C2.50035 14.221 2.58826 14.4327 2.74447 14.5889C2.90067 14.7452 3.11243 14.8331 3.33333 14.8334H12.6667C12.8876 14.8331 13.0993 14.7452 13.2555 14.5889C13.4117 14.4327 13.4996 14.221 13.5 14.0001V5.14942C13.4999 4.9545 13.4315 4.76578 13.3067 4.61608L10.682 1.46675C10.604 1.37268 10.5062 1.29702 10.3956 1.24515C10.2849 1.19329 10.1642 1.16652 10.042 1.16675H3.33333Z" fill="#2E3136"/>
<path d="M13.9867 5.50008H10.6667C10.3574 5.49973 10.0608 5.3767 9.8421 5.15798C9.62338 4.93927 9.50035 4.64273 9.5 4.33341V0.666748C9.5 0.53414 9.55268 0.406963 9.64645 0.313195C9.74022 0.219426 9.86739 0.166748 10 0.166748C10.1326 0.166748 10.2598 0.219426 10.3536 0.313195C10.4473 0.406963 10.5 0.53414 10.5 0.666748V4.33341C10.5005 4.37746 10.5182 4.41955 10.5494 4.45069C10.5805 4.48184 10.6226 4.49956 10.6667 4.50008H13.9867C14.1193 4.50008 14.2465 4.55276 14.3402 4.64653C14.434 4.7403 14.4867 4.86747 14.4867 5.00008C14.4867 5.13269 14.434 5.25987 14.3402 5.35363C14.2465 5.4474 14.1193 5.50008 13.9867 5.50008Z" fill="#2E3136"/>
</svg>
