<svg width="17" height="17" viewBox="0 0 17 17" fill="none" xmlns="http://www.w3.org/2000/svg">
<path d="M13.0946 16.5406H3.90539C3.60086 16.5402 3.30891 16.4191 3.09358 16.2037C2.87824 15.9884 2.75711 15.6964 2.75674 15.3919V1.60812C2.75711 1.30359 2.87824 1.01164 3.09358 0.796307C3.30891 0.580973 3.60086 0.459837 3.90539 0.459473H13.0946C13.3991 0.459837 13.6911 0.580973 13.9064 0.796307C14.1217 1.01164 14.2429 1.30359 14.2432 1.60812V15.3919C14.2429 15.6964 14.1217 15.9884 13.9064 16.2037C13.6911 16.4191 13.3991 16.5402 13.0946 16.5406ZM3.90539 0.918932C3.72261 0.918932 3.54731 0.991543 3.41806 1.12079C3.28881 1.25004 3.2162 1.42534 3.2162 1.60812V15.3919C3.2162 15.5747 3.28881 15.75 3.41806 15.8792C3.54731 16.0085 3.72261 16.0811 3.90539 16.0811H13.0946C13.2774 16.0811 13.4527 16.0085 13.5819 15.8792C13.7112 15.75 13.7838 15.5747 13.7838 15.3919V1.60812C13.7838 1.42534 13.7112 1.25004 13.5819 1.12079C13.4527 0.991543 13.2774 0.918932 13.0946 0.918932H3.90539Z" fill="#2E3136"/>
<path d="M12.2905 5.28385H4.70946C4.5876 5.28385 4.47074 5.23544 4.38457 5.14928C4.29841 5.06311 4.25 4.94625 4.25 4.82439V2.75682C4.25 2.63497 4.29841 2.5181 4.38457 2.43194C4.47074 2.34577 4.5876 2.29736 4.70946 2.29736H12.2905C12.4124 2.29736 12.5293 2.34577 12.6154 2.43194C12.7016 2.5181 12.75 2.63497 12.75 2.75682V4.82439C12.75 4.94625 12.7016 5.06311 12.6154 5.14928C12.5293 5.23544 12.4124 5.28385 12.2905 5.28385ZM4.70946 2.75682V4.82439H12.2905V2.75682H4.70946Z" fill="#2E3136"/>
<path d="M12.0895 8.56711H10.8931C10.789 8.56705 10.6892 8.5257 10.6156 8.45213C10.542 8.37857 10.5006 8.2788 10.5005 8.17473V6.97807C10.5007 6.87402 10.5421 6.77429 10.6157 6.70074C10.6893 6.62719 10.789 6.58581 10.8931 6.58569H12.0895C12.1935 6.58588 12.2932 6.62727 12.3668 6.70082C12.4403 6.77437 12.4817 6.87406 12.4819 6.97807V8.1745C12.4818 8.27857 12.4405 8.37836 12.3669 8.45197C12.2934 8.52558 12.1936 8.56699 12.0895 8.56711ZM10.9599 8.10765H12.0224V7.04515H10.9599V8.10765Z" fill="#2E3136"/>
<path d="M9.09729 8.56711H7.90269C7.79867 8.56699 7.69893 8.52561 7.62537 8.45205C7.55181 8.37849 7.51044 8.27876 7.51031 8.17473V6.97807C7.5105 6.87406 7.5519 6.77437 7.62544 6.70082C7.69899 6.62727 7.79868 6.58588 7.90269 6.58569H9.09729C9.2013 6.58588 9.30099 6.62727 9.37454 6.70082C9.44809 6.77437 9.48948 6.87406 9.48967 6.97807V8.1745C9.48961 8.27857 9.44825 8.37836 9.37469 8.45197C9.30112 8.52558 9.20136 8.56699 9.09729 8.56711ZM7.96771 8.10765H9.03021V7.04515H7.96886L7.96771 8.10765Z" fill="#2E3136"/>
<path d="M6.10691 8.56711H4.91048C4.80645 8.56699 4.70672 8.52561 4.63316 8.45205C4.5596 8.37849 4.51822 8.27876 4.5181 8.17473V6.97807C4.51828 6.87406 4.55968 6.77437 4.63322 6.70082C4.70677 6.62727 4.80647 6.58588 4.91048 6.58569H6.10691C6.21096 6.58581 6.31071 6.62719 6.38431 6.70074C6.4579 6.77429 6.49933 6.87402 6.49952 6.97807V8.1745C6.49946 8.27861 6.45807 8.37844 6.38446 8.45205C6.31084 8.52567 6.21102 8.56705 6.10691 8.56711ZM4.97756 8.10765H6.04006V7.04515H4.97756V8.10765Z" fill="#2E3136"/>
<path d="M9.09729 11.5583H7.9027C7.85102 11.5584 7.79985 11.5482 7.7521 11.5284C7.70435 11.5087 7.66098 11.4797 7.62445 11.4431C7.58792 11.4066 7.55895 11.3632 7.53921 11.3154C7.51947 11.2677 7.50934 11.2165 7.5094 11.1648V9.9702C7.50937 9.91855 7.51952 9.86739 7.53928 9.81966C7.55903 9.77193 7.588 9.72856 7.62453 9.69203C7.66105 9.6555 7.70442 9.62654 7.75215 9.60678C7.79988 9.58703 7.85104 9.57687 7.9027 9.5769H9.09729C9.14897 9.57684 9.20015 9.58697 9.24791 9.60672C9.29566 9.62646 9.33906 9.65542 9.37561 9.69195C9.41216 9.72848 9.44115 9.77186 9.46092 9.81961C9.48069 9.86735 9.49085 9.91853 9.49082 9.9702V11.1648C9.49088 11.2165 9.48074 11.2677 9.46099 11.3155C9.44123 11.3632 9.41225 11.4066 9.37569 11.4432C9.33914 11.4798 9.29573 11.5087 9.24796 11.5285C9.20019 11.5482 9.14899 11.5584 9.09729 11.5583ZM7.96771 11.0989H9.03021V10.0364H7.96886L7.96771 11.0989Z" fill="#2E3136"/>
<path d="M6.10691 11.5584H4.91048C4.80627 11.5582 4.7064 11.5166 4.63282 11.4428C4.55924 11.3691 4.51798 11.2691 4.5181 11.1649V9.97026C4.51828 9.86625 4.55968 9.76655 4.63322 9.69301C4.70677 9.61946 4.80647 9.57806 4.91048 9.57788H6.10691C6.21096 9.578 6.31071 9.61937 6.38431 9.69293C6.4579 9.76648 6.49933 9.86621 6.49952 9.97026V11.1649C6.49958 11.2165 6.48947 11.2676 6.46977 11.3153C6.45007 11.363 6.42117 11.4064 6.38471 11.4429C6.34826 11.4795 6.30496 11.5085 6.25729 11.5283C6.20963 11.5481 6.15853 11.5583 6.10691 11.5584ZM4.97756 11.0989H6.04006V10.0364H4.97756V11.0989Z" fill="#2E3136"/>
<path d="M12.0888 14.5488H10.8942C10.7902 14.5486 10.6905 14.5072 10.617 14.4336C10.5434 14.3601 10.502 14.2604 10.5019 14.1564V9.97026C10.502 9.86625 10.5434 9.76655 10.617 9.69301C10.6905 9.61946 10.7902 9.57806 10.8942 9.57788H12.0888C12.1928 9.57806 12.2925 9.61946 12.3661 9.69301C12.4396 9.76655 12.481 9.86625 12.4812 9.97026V14.1564C12.481 14.2604 12.4396 14.3601 12.3661 14.4336C12.2925 14.5072 12.1928 14.5486 12.0888 14.5488ZM10.9604 14.0893H12.0218V10.0369H10.9604V14.0893Z" fill="#2E3136"/>
<path d="M9.09729 14.5495H7.90269C7.79868 14.5494 7.69899 14.508 7.62544 14.4344C7.5519 14.3609 7.5105 14.2612 7.51031 14.1572V12.9607C7.51038 12.8567 7.55173 12.7569 7.62529 12.6833C7.69886 12.6096 7.79863 12.5682 7.90269 12.5681H9.09729C9.20132 12.5682 9.30105 12.6096 9.37461 12.6832C9.44817 12.7567 9.48954 12.8565 9.48967 12.9605V14.1569C9.48954 14.261 9.44817 14.3607 9.37462 14.4343C9.30107 14.5079 9.20134 14.5494 9.09729 14.5495ZM7.96771 14.0901H9.03021V13.0276H7.96886L7.96771 14.0901Z" fill="#2E3136"/>
<path d="M6.10691 14.5495H4.91048C4.80647 14.5494 4.70677 14.508 4.63322 14.4344C4.55968 14.3609 4.51828 14.2612 4.5181 14.1572V12.9607C4.51822 12.8567 4.5596 12.757 4.63316 12.6834C4.70672 12.6099 4.80645 12.5685 4.91048 12.5684H6.10691C6.21098 12.5684 6.31077 12.6098 6.38438 12.6833C6.45798 12.7569 6.49939 12.8567 6.49952 12.9607V14.1572C6.49933 14.2612 6.4579 14.361 6.38431 14.4345C6.31071 14.5081 6.21096 14.5494 6.10691 14.5495ZM4.97756 14.0901H6.04006V13.0276H4.97756V14.0901Z" fill="#2E3136"/>
</svg>
