<svg width="41" height="41" viewBox="0 0 41 41" fill="none" xmlns="http://www.w3.org/2000/svg">
<path d="M25.6635 18.0452C25.6635 17.4084 25.1471 16.8921 24.5104 16.8921H11.826C11.1892 16.8921 10.6729 17.4084 10.6729 18.0452C10.6729 18.682 11.1892 19.1983 11.826 19.1983H24.5104C25.1471 19.1983 25.6635 18.682 25.6635 18.0452Z" fill="#2E3136"/>
<path d="M11.8234 22.7153C11.1866 22.7153 10.6703 23.2317 10.6703 23.8685C10.6703 24.5052 11.1866 25.0216 11.8234 25.0216H18.5487C19.1855 25.0216 19.7018 24.5052 19.7018 23.8685C19.7018 23.2317 19.1855 22.7153 18.5487 22.7153H11.8234Z" fill="#2E3136"/>
<path d="M33.2613 18.1093C32.6245 18.1093 32.1082 18.6257 32.1082 19.2624V28.5887C32.1082 30.3337 30.6885 31.7533 28.9435 31.7533H21.2304C20.9805 31.7533 20.7371 31.8341 20.5372 31.9853L13.8773 36.9937C13.7081 37.1205 13.5493 37.068 13.4698 37.0244C13.3891 36.9834 13.2559 36.8822 13.261 36.6759L13.3891 32.9475C13.3994 32.6348 13.2828 32.3312 13.0662 32.107C12.8497 31.8815 12.5499 31.7546 12.2373 31.7546H6.88036C5.1353 31.7546 3.71567 30.3363 3.71567 28.5899V13.3431C3.71567 11.5916 5.1353 10.1668 6.88036 10.1668H21.0894C21.7262 10.1668 22.2425 9.6505 22.2425 9.01372C22.2425 8.37694 21.7262 7.8606 21.0894 7.8606H6.88036C3.8643 7.8606 1.40942 10.3206 1.40942 13.3443V28.5899C1.40942 31.606 3.8643 34.0622 6.88036 34.0622H11.0431L10.956 36.6016C10.9253 37.6445 11.48 38.5927 12.4064 39.0731C12.8023 39.2794 13.229 39.3806 13.6518 39.3806C14.2194 39.3806 14.7818 39.1974 15.261 38.8399L21.6147 34.0622H28.9422C31.9583 34.0622 34.4131 31.6073 34.4131 28.5899V19.2637C34.4144 18.6257 33.8981 18.1093 33.2613 18.1093Z" fill="#2E3136"/>
<path d="M39.4946 7.12511C39.2857 6.48448 38.772 6.00529 38.1198 5.84386L35.1729 5.1097L33.5637 2.53439C32.85 1.38895 30.9871 1.39151 30.2747 2.53439L28.6655 5.1097L25.7186 5.84386C25.0664 6.00529 24.5514 6.48448 24.3438 7.12511C24.1362 7.76573 24.2695 8.45632 24.7026 8.97267L26.6552 11.2969L26.4425 14.3257C26.3951 14.9971 26.6923 15.6339 27.2369 16.0298C27.5751 16.2758 27.9723 16.4026 28.3746 16.4026C28.6193 16.4026 28.8666 16.3552 29.1036 16.2591L31.9198 15.1214L34.7347 16.2591C35.3587 16.5128 36.0557 16.4257 36.6015 16.0311C37.1461 15.6352 37.4433 14.9984 37.3972 14.3257L37.1845 11.2969L39.1371 8.97139C39.5689 8.45632 39.7034 7.76573 39.4946 7.12511ZM35.1178 10.1706C34.9256 10.4 34.8296 10.6947 34.8513 10.9945L35.0563 13.9029L32.3529 12.81C32.2145 12.7536 32.0672 12.7255 31.9211 12.7255C31.7751 12.7255 31.6277 12.7536 31.4893 12.81L28.7872 13.9029L28.9909 10.9945C29.0114 10.6959 28.9153 10.4 28.7244 10.1706L26.8499 7.9387L29.6789 7.23273C29.9685 7.1597 30.2196 6.97904 30.3772 6.72536L31.9224 4.25382L33.4676 6.72536C33.6265 6.97904 33.8763 7.16098 34.1659 7.23273L36.9949 7.9387L35.1178 10.1706Z" fill="#2E3136"/>
</svg>
