<svg width="20" height="20" viewBox="0 0 20 20" fill="none" xmlns="http://www.w3.org/2000/svg">
<path d="M15.1312 8.125H15V5.625C15 4.29892 14.4732 3.02715 13.5355 2.08947C12.5979 1.15178 11.3261 0.625 10 0.625C8.67392 0.625 7.40215 1.15178 6.46447 2.08947C5.52678 3.02715 5 4.29892 5 5.625V8.125H4.86875C4.40628 8.125 3.96275 8.30872 3.63573 8.63573C3.30872 8.96275 3.125 9.40628 3.125 9.86875V17.6312C3.125 18.0937 3.30872 18.5373 3.63573 18.8643C3.96275 19.1913 4.40628 19.375 4.86875 19.375H15.1312C15.5937 19.375 16.0373 19.1913 16.3643 18.8643C16.6913 18.5373 16.875 18.0937 16.875 17.6312V9.86875C16.875 9.40628 16.6913 8.96275 16.3643 8.63573C16.0373 8.30872 15.5937 8.125 15.1312 8.125ZM6.25 5.625C6.25 4.63044 6.64509 3.67661 7.34835 2.97335C8.05161 2.27009 9.00544 1.875 10 1.875C10.9946 1.875 11.9484 2.27009 12.6517 2.97335C13.3549 3.67661 13.75 4.63044 13.75 5.625V8.125H6.25V5.625ZM15.625 17.6312C15.625 17.7622 15.573 17.8878 15.4804 17.9804C15.3878 18.073 15.2622 18.125 15.1312 18.125H4.86875C4.7378 18.125 4.61221 18.073 4.51962 17.9804C4.42702 17.8878 4.375 17.7622 4.375 17.6312V9.86875C4.375 9.7378 4.42702 9.61221 4.51962 9.51962C4.61221 9.42702 4.7378 9.375 4.86875 9.375H15.1312C15.2622 9.375 15.3878 9.42702 15.4804 9.51962C15.573 9.61221 15.625 9.7378 15.625 9.86875V17.6312Z" fill="#2E3136"/>
</svg>
