<svg width="17" height="17" viewBox="0 0 17 17" fill="none" xmlns="http://www.w3.org/2000/svg">
<path d="M12.6636 1.53564H4.33642C3.44962 1.53658 2.59942 1.88928 1.97236 2.51633C1.3453 3.14339 0.992606 3.9936 0.991669 4.88039V9.74806C0.992606 10.6349 1.3453 11.4851 1.97236 12.1121C2.59942 12.7392 3.44962 13.0919 4.33642 13.0928H6.33108C6.37811 13.0929 6.42449 13.1038 6.46663 13.1246C6.50877 13.1455 6.54552 13.1758 6.57404 13.2132L8.15788 15.3C8.19754 15.352 8.24866 15.3941 8.30727 15.4231C8.36587 15.4521 8.43037 15.4671 8.49575 15.4671C8.56108 15.4672 8.62554 15.4523 8.68414 15.4234C8.74273 15.3945 8.79389 15.3525 8.83363 15.3007L10.4245 13.2161C10.4529 13.1786 10.4895 13.1483 10.5315 13.1274C10.5736 13.1065 10.6199 13.0956 10.6668 13.0956H12.6629C13.5503 13.0949 14.4011 12.7419 15.0284 12.1142C15.6557 11.4865 16.0081 10.6355 16.0083 9.74806V4.88039C16.0074 3.9936 15.6547 3.14339 15.0276 2.51633C14.4006 1.88928 13.5504 1.53658 12.6636 1.53564ZM15.1583 9.74806C15.1576 10.4094 14.8946 11.0434 14.4271 11.511C13.9595 11.9787 13.3256 12.2419 12.6643 12.2428H10.6675C10.4895 12.2429 10.3139 12.2839 10.1542 12.3626C9.99454 12.4413 9.85511 12.5557 9.74667 12.6969L8.5 14.3381L7.25404 12.6983C7.14571 12.5569 7.00634 12.4423 6.84667 12.3633C6.68701 12.2843 6.51134 12.2431 6.33321 12.2428H4.33642C3.675 12.2421 3.04089 11.979 2.57319 11.5113C2.1055 11.0436 1.84242 10.4095 1.84167 9.74806V4.88039C1.84223 4.21885 2.10523 3.58456 2.57294 3.11671C3.04066 2.64886 3.67488 2.38569 4.33642 2.38494H12.6636C13.3251 2.38569 13.9593 2.64886 14.4271 3.11671C14.8948 3.58456 15.1578 4.21885 15.1583 4.88039V9.74806ZM6.43804 7.31423C6.43804 7.48935 6.38611 7.66053 6.28882 7.80614C6.19153 7.95175 6.05325 8.06523 5.89146 8.13225C5.72967 8.19926 5.55164 8.2168 5.37989 8.18263C5.20814 8.14847 5.05037 8.06414 4.92654 7.94031C4.80272 7.81648 4.71839 7.65872 4.68422 7.48696C4.65006 7.31521 4.66759 7.13718 4.73461 6.97539C4.80162 6.8136 4.91511 6.67532 5.06072 6.57803C5.20632 6.48074 5.37751 6.42881 5.55263 6.42881C5.78745 6.42881 6.01266 6.5221 6.17871 6.68814C6.34476 6.85419 6.43804 7.0794 6.43804 7.31423ZM9.38542 7.31423C9.38542 7.48935 9.33349 7.66053 9.2362 7.80614C9.13891 7.95175 9.00063 8.06523 8.83884 8.13225C8.67705 8.19926 8.49902 8.2168 8.32727 8.18263C8.15551 8.14847 7.99775 8.06414 7.87392 7.94031C7.75009 7.81648 7.66576 7.65872 7.6316 7.48696C7.59743 7.31521 7.61497 7.13718 7.68198 6.97539C7.749 6.8136 7.86248 6.67532 8.00809 6.57803C8.1537 6.48074 8.32488 6.42881 8.5 6.42881C8.73483 6.42881 8.96004 6.5221 9.12609 6.68814C9.29213 6.85419 9.38542 7.0794 9.38542 7.31423ZM12.3328 7.31423C12.3328 7.48935 12.2809 7.66053 12.1836 7.80614C12.0863 7.95175 11.948 8.06523 11.7862 8.13225C11.6244 8.19926 11.4464 8.2168 11.2746 8.18263C11.1029 8.14847 10.9451 8.06414 10.8213 7.94031C10.6975 7.81648 10.6131 7.65872 10.579 7.48696C10.5448 7.31521 10.5623 7.13718 10.6294 6.97539C10.6964 6.8136 10.8099 6.67532 10.9555 6.57803C11.1011 6.48074 11.2723 6.42881 11.4474 6.42881C11.6822 6.42881 11.9074 6.5221 12.0735 6.68814C12.2395 6.85419 12.3328 7.0794 12.3328 7.31423Z" fill="#2E3136"/>
</svg>
