<svg width="50" height="50" viewBox="0 0 50 50" fill="none" xmlns="http://www.w3.org/2000/svg">
<path d="M7.44141 18.8574C9.0625 16.1426 14.0137 9.82422 24.9707 9.82422C36.2012 9.82422 40.9863 16.6895 42.5586 18.9551L43.3594 20.1953L45.8594 18.6133L45.0293 17.3047C44.1602 16.0449 42.3438 13.4473 39.0918 11.1426C35.1465 8.33984 30.3906 6.91406 24.9707 6.91406C12.4609 6.91406 6.73828 14.248 4.85352 17.3926L4.13086 18.6133L5.24414 19.2871C5.29297 19.3262 5.35156 19.3652 5.40039 19.3945C5.43945 19.4141 5.47852 19.4336 5.51758 19.4531L6.72852 20.1855L7.44141 18.8574Z" fill="white"/>
<path d="M37.0117 16.6895C33.5449 13.8672 29.3848 12.3633 24.9805 12.3633C15.459 12.3633 9.13087 18.8086 7.08009 25.2051C5.19532 31.1133 7.49025 39.668 7.57814 40.0293L8.00782 41.377L10.9277 40.7519L10.4688 39.2871C10.4492 39.209 8.31056 31.1914 9.94142 26.084C10.8203 23.3398 12.6465 20.6738 14.9512 18.7793C17.7344 16.5039 21.2012 15.293 24.9805 15.293C33.8281 15.293 38.8379 22.1875 40.2637 25.8496C41.3672 28.6719 41.1133 31.8848 39.6484 33.8574C39.1113 34.5801 38.1543 35.4297 36.709 35.3516C33.4082 35.1855 32.832 33.5547 32.041 30.4395C31.6602 28.9453 31.2695 27.3926 30.293 26.1426C29.1113 24.5996 27.3828 23.8574 24.9902 23.8574C22.4219 23.8574 20.4688 24.707 19.1895 26.3672C16.3965 30.0098 18.2129 36.2207 18.291 36.4844L18.3106 36.5625C18.4473 36.9434 21.8359 46.0059 30.8984 48.2519L32.3438 48.5644L33.1348 45.7617L31.6406 45.4297C24.3945 43.6328 21.3672 36.2109 21.1328 35.625C20.8692 34.6777 20.7031 33.7012 20.6348 32.7148C20.5274 31.2988 20.6055 29.3555 21.5527 28.1152C22.2461 27.207 23.3692 26.7676 24.9707 26.7676C27.8809 26.7676 28.3692 28.1934 29.1309 31.1426C29.8731 34.0234 30.8887 37.9687 36.5332 38.252C38.7012 38.3594 40.6641 37.3926 42.0313 35.5566C44.0918 32.793 44.4824 28.5645 43.0274 24.8047C41.8945 21.8359 39.6973 18.8867 37.0117 16.6895Z" fill="white"/>
<path d="M15.0293 33.3789C14.6875 30.6152 15.166 26.4453 17.6172 23.7305C19.3164 21.8457 21.7969 20.8984 24.9609 20.8984C28.6231 20.8984 31.3965 22.5293 33.2129 25.7422C34.1113 27.3535 34.6973 29.1211 34.9609 30.9473L35.0977 32.3828L38.0273 32.168C38.0273 31.6602 37.9981 31.1523 37.9297 30.6445C37.9199 30.5176 37.5781 27.4707 35.8789 24.4141C33.5254 20.2051 29.7656 17.9785 24.9707 17.9785C20.918 17.9785 17.6953 19.2676 15.3906 21.7969C12.2852 25.2246 11.6504 30.2246 12.0801 33.7402V33.7695C12.8613 39.0918 14.9121 43.3496 18.5352 47.1582L19.668 48.252L21.7188 46.123L20.7129 45.166C17.5195 41.8262 15.7129 38.0859 15.0293 33.3789Z" fill="white"/>
<path d="M12.9102 6.95312C13.9941 6.29883 17.8223 4.33594 24.9707 4.33594C33.5156 4.33594 37.3145 7.13867 37.3633 7.1582L38.7207 8.02734L40.3027 5.56641L39.0137 4.72656C38.9648 4.6875 38.9063 4.64844 38.8574 4.61914C37.6172 3.80859 33.2324 1.41602 24.9707 1.41602C16.4063 1.42578 12.0117 4.00391 10.9668 4.7168L9.63867 5.57617L11.2207 8.03711L12.9102 6.95312Z" fill="white"/>
<path d="M38.1152 40.4102C34.8535 40.7812 32.207 40.1465 30.2344 38.5742C26.8945 35.8984 26.4551 31.2402 26.4453 31.1523L26.3281 29.6973L23.3496 29.9121L23.4766 31.377C23.4961 31.6211 23.9844 37.3145 28.3203 40.8008C30.4785 42.5488 33.1738 43.4277 36.3477 43.4277C37.0508 43.4277 37.7539 43.3887 38.457 43.3008L40.0781 43.0957L39.4824 40.1953L38.1152 40.4102Z" fill="white"/>
</svg>
