<svg width="20" height="20" viewBox="0 0 20 20" fill="none" xmlns="http://www.w3.org/2000/svg">
<path d="M17.8008 13.7195L16.6387 12.5355C16.4762 12.3703 16.3867 12.1516 16.3867 11.9199V8.33984C16.3867 5.45 14.4574 3.00273 11.8191 2.21758C11.843 2.09883 11.8555 1.97734 11.8555 1.85547C11.8555 0.832422 11.023 0 9.99999 0C8.97694 0 8.14452 0.832422 8.14452 1.85547C8.14452 1.97852 8.15663 2.09961 8.17967 2.21797C5.54217 3.00352 3.61327 5.45039 3.61327 8.33984V11.9199C3.61327 12.1516 3.52382 12.3703 3.36132 12.5355L2.19921 13.7195C1.55389 14.3766 1.37421 15.3125 1.73085 16.1621C2.0871 17.0113 2.88085 17.5391 3.80194 17.5391H7.22733C7.39218 18.923 8.57225 20 9.99999 20C11.4277 20 12.6078 18.923 12.7726 17.5391H16.198C17.1191 17.5391 17.9129 17.0113 18.2691 16.1621C18.6258 15.3125 18.4461 14.3766 17.8008 13.7195ZM9.51171 1.85547C9.51171 1.58633 9.73085 1.36719 9.99999 1.36719C10.2691 1.36719 10.4883 1.58633 10.4883 1.85547C10.4883 1.89766 10.4828 1.93555 10.4742 1.9707C10.3176 1.95938 10.1594 1.95312 9.99999 1.95312C9.84061 1.95312 9.68241 1.95938 9.52577 1.9707C9.51718 1.93594 9.51171 1.89766 9.51171 1.85547ZM9.99999 18.6328C9.32811 18.6328 8.76366 18.1656 8.61366 17.5391H11.3863C11.2363 18.1656 10.6719 18.6328 9.99999 18.6328ZM17.0086 15.6332C16.9555 15.7598 16.7402 16.1719 16.198 16.1719H3.80194C3.25975 16.1719 3.04452 15.7594 2.99139 15.6332C2.93827 15.5066 2.79491 15.0645 3.1746 14.6773L4.3371 13.4934C4.75194 13.0707 4.98046 12.5121 4.98046 11.9199V8.33984C4.98046 5.57227 7.23202 3.32031 9.99999 3.32031C12.768 3.32031 15.0195 5.57227 15.0195 8.33984V11.9199C15.0195 12.5121 15.248 13.0707 15.6629 13.4934L16.8254 14.6773C17.2051 15.0641 17.0617 15.5066 17.0086 15.6332Z" fill="#2E3136"/>
</svg>
