<svg width="20" height="20" viewBox="0 0 20 20" fill="none" xmlns="http://www.w3.org/2000/svg">
<path d="M12.5562 9.79312C13.6556 8.9975 14.375 7.7075 14.375 6.25C14.375 3.83812 12.4125 1.875 10 1.875C7.5875 1.875 5.625 3.83812 5.625 6.25C5.625 7.7075 6.34438 8.9975 7.44375 9.79312C4.21375 10.8675 1.875 13.9137 1.875 17.5C1.875 17.8456 2.155 18.125 2.5 18.125H17.5C17.845 18.125 18.125 17.8456 18.125 17.5C18.125 13.9137 15.7863 10.8675 12.5562 9.79312ZM6.875 6.25C6.875 4.52688 8.27688 3.125 10 3.125C11.7231 3.125 13.125 4.52688 13.125 6.25C13.125 7.97312 11.7231 9.375 10 9.375C8.27688 9.375 6.875 7.97312 6.875 6.25ZM3.15313 16.875C3.47 13.3756 6.41937 10.625 10 10.625C13.5806 10.625 16.53 13.3756 16.8469 16.875H3.15313Z" fill="#2E3136"/>
</svg>
