<svg width="16" height="16" viewBox="0 0 16 16" fill="none" xmlns="http://www.w3.org/2000/svg">
<g clip-path="url(#clip0_74_1063)">
<path d="M11.6713 9.53795L11.6653 9.58795C10.1993 8.85728 10.046 8.75995 9.85667 9.04395C9.72533 9.24062 9.34267 9.68662 9.22733 9.81862C9.11067 9.94862 8.99467 9.95862 8.79667 9.86862C8.59667 9.76862 7.95467 9.55862 7.19467 8.87862C6.60267 8.34862 6.20533 7.69862 6.088 7.49862C5.89267 7.16128 6.30133 7.11328 6.67333 6.40928C6.74 6.26928 6.706 6.15928 6.65667 6.05995C6.60667 5.95995 6.20867 4.97995 6.042 4.58928C5.882 4.19995 5.71733 4.24928 5.594 4.24928C5.21 4.21595 4.92933 4.22128 4.682 4.47862C3.606 5.66128 3.87733 6.88128 4.798 8.17862C6.60733 10.5466 7.57133 10.9826 9.334 11.588C9.81 11.7393 10.244 11.718 10.5873 11.6686C10.97 11.608 11.7653 11.188 11.9313 10.718C12.1013 10.248 12.1013 9.85795 12.0513 9.76795C12.002 9.67795 11.8713 9.62795 11.6713 9.53795Z" fill="#2E3136"/>
<path d="M13.68 2.29913C8.554 -2.6562 0.0706667 0.9378 0.0673333 7.92847C0.0673333 9.3258 0.433333 10.6885 1.13067 11.8918L0 15.9998L4.22333 14.8985C9.49333 17.7451 15.9973 13.9651 16 7.93247C16 5.81513 15.1733 3.82247 13.67 2.32513L13.68 2.29913ZM14.668 7.91047C14.664 12.9991 9.078 16.1771 4.66 13.5798L4.42 13.4371L1.92 14.0871L2.59 11.6571L2.43067 11.4071C-0.318667 7.03047 2.84 1.31047 8.048 1.31047C9.81733 1.31047 11.478 2.00047 12.7287 3.25047C13.9787 4.4898 14.668 6.15047 14.668 7.91047Z" fill="#2E3136"/>
</g>
<defs>
<clipPath id="clip0_74_1063">
<rect width="16" height="16" fill="white"/>
</clipPath>
</defs>
</svg>
