<?xml version="1.0" encoding="UTF-8"?>
<svg id="Capa_1" data-name="Capa 1" xmlns="http://www.w3.org/2000/svg" viewBox="0 0 212.29 201.72">
  <defs>
    <style>
      .cls-1 {
        fill: #e4e7ed;
      }
    </style>
  </defs>
  <path class="cls-1" d="M22.91,169.01l84.5-104.6c8.27-10.57,15.45-17.13,15.45-17.13v-.72s-5.39.72-16.89.72h-33.08c-5.03,0-7.91,2.92-7.91,8.02v10.57H23.63v-33.16c0-17.13,7.19-24.78,24.45-24.78h134.47v25.14l-84.49,104.6c-8.27,10.21-15.47,17.13-15.47,17.13v.72s5.4-1.1,17.26-1.1h40.27c5.04,0,7.91-2.55,7.91-8.02v-10.2h41.35v32.8c0,17.49-7.19,24.78-24.09,24.78H22.91v-24.78Z"/>
</svg>