<?xml version="1.0" encoding="UTF-8"?>
<svg id="Capa_1" data-name="Capa 1" xmlns="http://www.w3.org/2000/svg" viewBox="0 0 512 512">
  <defs>
    <style>
      .cls-1 {
        fill: #b3c300;
      }
    </style>
  </defs>
  <path class="cls-1" d="M108.22,377l150.03-185.72c14.68-18.76,27.44-30.42,27.44-30.42v-1.28s-9.56,1.28-29.99,1.28h-58.73c-8.93,0-14.05,5.19-14.05,14.24v18.76h-73.41v-58.88c0-30.42,12.76-44,43.4-44h238.75v44.64l-150,185.72c-14.68,18.12-27.46,30.42-27.46,30.42v1.28s9.58-1.94,30.64-1.94h71.5c8.95,0,14.05-4.53,14.05-14.24v-18.1h73.41v58.23c0,31.06-12.77,44-42.77,44H108.22v-44Z"/>
</svg>