<?xml version="1.0" encoding="UTF-8"?>
<svg id="Capa_1" data-name="Capa 1" xmlns="http://www.w3.org/2000/svg" viewBox="0 0 212.29 201.72">
  <defs>
    <style>
      .cls-1 {
        fill: #b3c300;
      }
    </style>
  </defs>
  <path class="cls-1" d="M21.05,170.53L107.44,63.6c8.45-10.8,15.8-17.52,15.8-17.52v-.74s-5.51.74-17.27.74h-33.82c-5.14,0-8.09,2.99-8.09,8.2v10.8H21.79V31.18c0-17.52,7.35-25.33,24.99-25.33h137.47v25.7l-86.37,106.94c-8.45,10.43-15.81,17.51-15.81,17.51v.74s5.52-1.12,17.64-1.12h41.17c5.15,0,8.09-2.61,8.09-8.2v-10.42h42.27v33.53c0,17.88-7.35,25.33-24.63,25.33H21.05v-25.33Z"/>
</svg>